<svg width="31" height="24" viewBox="0 0 31 24" fill="none" xmlns="http://www.w3.org/2000/svg">
<rect width="31" height="24" rx="12" fill="#243BB5"/>
<path fill-rule="evenodd" clip-rule="evenodd" d="M5.01251 12C5.01251 8.24791 7.94642 5.25 11.5125 5.25C12.439 5.25 13.3229 5.45237 14.1237 5.81776C12.4635 7.33327 11.4216 9.54739 11.4216 12C11.4216 14.4526 12.4635 16.6667 14.1237 18.1822C13.3229 18.5476 12.439 18.75 11.5125 18.75C7.94642 18.75 5.01251 15.7521 5.01251 12ZM15.4671 19.1742C14.303 19.8583 12.9543 20.25 11.5125 20.25C7.07047 20.25 3.51251 16.5322 3.51251 12C3.51251 7.46782 7.07047 3.75 11.5125 3.75C12.9543 3.75 14.303 4.14168 15.4671 4.82576C16.6311 4.14168 17.9798 3.75 19.4216 3.75C23.8636 3.75 27.4216 7.46782 27.4216 12C27.4216 16.5322 23.8636 20.25 19.4216 20.25C17.9798 20.25 16.6311 19.8583 15.4671 19.1742ZM16.8104 5.81776C17.6112 5.45237 18.4951 5.25 19.4216 5.25C22.9877 5.25 25.9216 8.24791 25.9216 12C25.9216 15.7521 22.9877 18.75 19.4216 18.75C18.4951 18.75 17.6112 18.5476 16.8104 18.1822C18.4706 16.6667 19.5125 14.4526 19.5125 12C19.5125 9.54739 18.4706 7.33327 16.8104 5.81776ZM15.4671 6.64328C17.011 7.87309 18.0125 9.80782 18.0125 12C18.0125 14.1922 17.011 16.1269 15.4671 17.3567C13.9231 16.1269 12.9216 14.1922 12.9216 12C12.9216 9.80782 13.9231 7.87309 15.4671 6.64328Z" fill="#F8F5D7"/>
</svg>
