<svg width="639" height="101" viewBox="0 0 639 101" fill="none" xmlns="http://www.w3.org/2000/svg">
<path d="M0.0627863 98.7963V69.4894H1.10498C9.70618 83.6908 16.8132 94.8912 30.2235 94.8912C40.118 94.8912 45.2034 88.3744 45.2034 80.3006C45.2034 71.6994 42.0768 68.4472 31.9186 62.4578L17.9809 54.1203C6.00202 46.9505 0 38.6255 0 27.4126C0 10.8757 12.7825 1.98568 32.0442 0.453788C47.9407 -1.0781 61.2255 1.75967 61.2255 1.75967V26.8978H60.3089C50.5399 12.1816 44.2868 5.40105 33.7393 5.40105C25.791 5.40105 20.1909 9.44424 20.1909 17.1288C20.1909 25.73 27.0969 30.1499 33.8649 34.1931L47.4133 42.1413C61.2129 50.2152 67.8679 57.8998 67.8679 70.6697C67.8679 87.3447 54.1436 99.4492 31.7931 100.24C9.4425 101.031 0.0627863 98.7963 0.0627863 98.7963Z" fill="#1F1D1A"/>
<path d="M79.3486 88.9272V11.6168L75.6947 1.75998H144.868V22.993H143.701L130.541 8.101H104.236V45.0297H121.953L130.805 34.7208H131.722V61.8177H130.805L121.953 51.3707H104.236V92.4681H131.847L145.521 74.4495H146.689V98.8092H75.6947L79.3486 88.9272Z" fill="#1F1D1A"/>
<path d="M236.177 88.8867V22.2116L211.164 98.1534H188.939L166.438 29.9088V88.8992L170.217 98.8063H156.719L160.373 88.9871V11.5512L157.184 1.76965H182.824L209.394 82.2694L235.838 1.76965H264.843L261.189 11.6642V88.962L264.843 98.7937H232.485L236.177 88.8867Z" fill="#1F1D1A"/>
<path d="M289.202 98.7966H274.7L278.454 88.8895L305.488 15.5721L300.152 1.75998H325.428L358.753 88.8895L362.432 98.7966H329.584L333.301 88.8895L326.031 69.8413H293.045L285.573 88.8895M323.595 63.2366L308.979 24.9895L295.003 63.2366H323.595Z" fill="#1F1D1A"/>
<path d="M488.522 0.803188C515.042 -2.34849 539.464 15.6073 542.93 44.7133C546.571 75.3637 528.615 96.5214 500.288 99.8865C472.739 103.164 449.484 85.1954 446.044 56.2275C442.39 25.439 461.099 4.06788 488.522 0.803188ZM472.789 53.8293C476.154 82.1567 485.798 97.1492 499.899 95.4666C513.999 93.7966 519.863 76.9583 516.511 48.6309C512.43 14.2261 503.565 3.72885 489.213 5.43654C474.848 7.15678 468.696 19.4245 472.789 53.8293Z" fill="#1F1D1A"/>
<path d="M639 98.7937H611.79L586.263 52.6863H579.231V88.8866L583.136 98.7937H550.489L554.218 88.8866V11.6391L550.489 1.76965H589.264C613.623 1.76965 631.34 6.59136 631.34 25.9911C631.34 36.8776 625.904 46.4457 611.828 50.7149C604.721 52.8621 599.861 52.6988 599.861 52.6988L615.406 57.1815L639 98.7937ZM579.231 46.4834H587.041C602.147 46.4834 606.052 41.0966 606.052 29.3688C606.052 13.736 597.978 8.08557 587.041 8.08557H579.231V46.4834Z" fill="#1F1D1A"/>
<path d="M404.88 98.7966H372.56L376.214 88.9272V11.6168L372.56 1.75998H441.734V22.993H440.566L427.407 8.101H401.101V45.0297H418.818L427.67 34.7208H428.587V61.8177H427.67L418.818 51.3707H401.101V88.8895L404.88 98.7966Z" fill="#1F1D1A"/>
</svg>
