<svg width="76" height="20" viewBox="0 0 76 20" fill="none" xmlns="http://www.w3.org/2000/svg">
<path d="M6.03324 6C5.67197 6.72935 5.32274 7.36752 4.98555 7.91453C4.62428 8.46154 4.27505 8.91738 3.93786 9.28205L25 9.28205L25 10.7179L3.93786 10.7179C4.27505 11.1054 4.62428 11.5726 4.98555 12.1197C5.32274 12.6667 5.67196 13.2934 6.03324 14L4.76879 14C3.25145 12.3362 1.66185 11.1054 3.22792e-07 10.3077L3.7659e-07 9.69231C1.66185 8.91738 3.25145 7.68661 4.76879 6L6.03324 6Z" fill="#447A8E"/>
<path d="M35.7407 0.230277L33.2059 4.93817V7.77313H31.6223V4.93817L29 0.230277H30.8664L32.4398 3.51556L33.9463 0.230277H35.7407Z" fill="#447A8E"/>
<path d="M39.998 7.98294C38.9149 7.98294 38.087 7.68955 37.5146 7.10277C36.7468 6.38294 36.3629 5.34584 36.3629 3.99147C36.3629 2.60981 36.7468 1.57271 37.5146 0.880171C38.087 0.29339 38.9149 0 39.998 0C41.0812 0 41.909 0.29339 42.4815 0.880171C43.2459 1.57271 43.628 2.60981 43.628 3.99147C43.628 5.34584 43.2459 6.38294 42.4815 7.10277C41.909 7.68955 41.0812 7.98294 39.998 7.98294ZM41.4943 5.9565C41.861 5.49595 42.0444 4.84094 42.0444 3.99147C42.0444 3.14542 41.8593 2.49211 41.4891 2.03156C41.1223 1.56759 40.6253 1.33561 39.998 1.33561C39.3707 1.33561 38.8703 1.56588 38.4967 2.02644C38.123 2.48699 37.9362 3.142 37.9362 3.99147C37.9362 4.84094 38.123 5.49595 38.4967 5.9565C38.8703 6.41706 39.3707 6.64733 39.998 6.64733C40.6253 6.64733 41.1241 6.41706 41.4943 5.9565Z" fill="#447A8E"/>
<path d="M49.325 4.86652V0.230277H50.9344V4.86652C50.9344 5.66823 50.8092 6.29254 50.559 6.73945C50.0928 7.55821 49.2033 7.96759 47.8905 7.96759C46.5777 7.96759 45.6864 7.55821 45.2168 6.73945C44.9666 6.29254 44.8415 5.66823 44.8415 4.86652V0.230277H46.4508V4.86652C46.4508 5.38507 46.5125 5.76375 46.6359 6.00256C46.8279 6.42559 47.2461 6.6371 47.8905 6.6371C48.5315 6.6371 48.948 6.42559 49.1399 6.00256C49.2633 5.76375 49.325 5.38507 49.325 4.86652Z" fill="#447A8E"/>
<path d="M59.4284 6.2226H56.6365L56.112 7.77313H54.4564L57.1609 0.230277H58.9502L61.6342 7.77313H59.9169L59.4284 6.2226ZM58.9862 4.92281L58.0401 1.9548L57.0632 4.92281H58.9862Z" fill="#447A8E"/>
<path d="M65.8195 4.81535H64.1844V7.77313H62.6368V0.230277H66.3542C66.8855 0.240512 67.2934 0.30533 67.5779 0.424733C67.8659 0.544136 68.1092 0.719829 68.3081 0.951812C68.4726 1.14286 68.6029 1.35437 68.6988 1.58635C68.7948 1.81834 68.8428 2.08273 68.8428 2.37953C68.8428 2.73774 68.752 3.09083 68.5703 3.43881C68.3886 3.78337 68.0887 4.02729 67.6705 4.17058C68.0201 4.31045 68.2669 4.51002 68.4109 4.7693C68.5583 5.02516 68.632 5.41748 68.632 5.94627V6.45288C68.632 6.79744 68.6457 7.03113 68.6731 7.15394C68.7143 7.3484 68.8102 7.49168 68.9611 7.5838V7.77313H67.218C67.17 7.60597 67.1358 7.47122 67.1152 7.36887C67.0741 7.15736 67.0518 6.94072 67.0484 6.71898L67.0381 6.01791C67.0312 5.53689 66.9421 5.2162 66.7707 5.05586C66.6027 4.89552 66.2857 4.81535 65.8195 4.81535ZM66.781 3.44392C67.0963 3.30064 67.254 3.01748 67.254 2.59446C67.254 2.13731 67.1015 1.83028 66.7964 1.67335C66.625 1.58465 66.3679 1.5403 66.0252 1.5403H64.1844V3.56674H65.9789C66.3354 3.56674 66.6027 3.5258 66.781 3.44392Z" fill="#447A8E"/>
<path d="M75.4858 4.47761H71.8044V6.41706H76V7.77313H70.2568V0.230277H75.8149V1.56588H71.8044V3.16759H75.4858V4.47761Z" fill="#447A8E"/>
<path d="M43.3144 20V16.6328H40.3528V20H38.7846V12.4571H40.3528V15.333H43.3144V12.4571H44.8878V20H43.3144Z" fill="#447A8E"/>
<path d="M51.6799 16.7045H47.9985V18.6439H52.1941V20H46.4508V12.4571H52.009V13.7928H47.9985V15.3945H51.6799V16.7045Z" fill="#447A8E"/>
<path d="M56.6468 17.0422H55.0117V20H53.4641V12.4571H57.1815C57.7128 12.4674 58.1207 12.5322 58.4052 12.6516C58.6931 12.771 58.9365 12.9467 59.1353 13.1787C59.2999 13.3697 59.4301 13.5812 59.5261 13.8132C59.6221 14.0452 59.6701 14.3096 59.6701 14.6064C59.6701 14.9646 59.5792 15.3177 59.3975 15.6657C59.2159 16.0102 58.9159 16.2542 58.4978 16.3974C58.8474 16.5373 59.0942 16.7369 59.2382 16.9962C59.3856 17.252 59.4592 17.6444 59.4592 18.1731V18.6797C59.4592 19.0243 59.473 19.258 59.5004 19.3808C59.5415 19.5753 59.6375 19.7185 59.7883 19.8107V20H58.0453C57.9973 19.8328 57.963 19.6981 57.9425 19.5957C57.9013 19.3842 57.879 19.1676 57.8756 18.9458L57.8653 18.2448C57.8585 17.7638 57.7694 17.4431 57.598 17.2827C57.43 17.1224 57.1129 17.0422 56.6468 17.0422ZM57.6082 15.6708C57.9236 15.5275 58.0813 15.2443 58.0813 14.8213C58.0813 14.3642 57.9287 14.0571 57.6237 13.9002C57.4523 13.8115 57.1952 13.7672 56.8524 13.7672H55.0117V15.7936H56.8061C57.1626 15.7936 57.43 15.7527 57.6082 15.6708Z" fill="#447A8E"/>
<path d="M66.3131 16.7045H62.6317V18.6439H66.8273V20H61.084V12.4571H66.6422V13.7928H62.6317V15.3945H66.3131V16.7045Z" fill="#447A8E"/>
</svg>
