<svg width="230" height="28" viewBox="0 0 230 28" fill="none" xmlns="http://www.w3.org/2000/svg">
<g clip-path="url(#clip0_3407_17248)">
<rect width="28" height="28" fill="#F8F5D7"/>
<mask id="mask0_3407_17248" style="mask-type:alpha" maskUnits="userSpaceOnUse" x="-1" y="0" width="30" height="29">
<path d="M-0.284164 28.1867H28.0169V0H-0.28418L-0.284164 28.1867Z" fill="#D9D9D9"/>
</mask>
<g mask="url(#mask0_3407_17248)">
<path d="M28.0169 28.1867H-0.28418V4.09202L6.69259 0H28.0169V28.1867Z" fill="#1F1D1A"/>
<path d="M-1.58103 28.4146V19.7985H-1.27603C1.25289 23.9668 3.33702 27.2582 7.27655 27.2582C10.1867 27.2582 11.6736 25.3392 11.6736 22.9755C11.6736 20.4466 10.7586 19.4935 7.77217 17.7271L3.68014 15.2744C0.159988 13.1648 -1.60645 10.7249 -1.60645 7.43346C-1.60645 2.57894 2.15516 -0.0389333 7.81029 -0.483718C12.4742 -0.928504 16.3883 -0.102474 16.3883 -0.102474V7.28096H16.1214C13.2494 2.96019 11.4194 0.965009 8.31862 0.965009C5.98032 0.965009 4.34097 2.14687 4.34097 4.40892C4.34097 6.93784 6.37427 8.23407 8.35674 9.41593L12.3344 11.7542C16.3883 14.1306 18.3453 16.38 18.3453 20.1289C18.3453 25.0215 14.3169 28.5798 7.74675 28.8213C1.17664 29.0627 -1.58103 28.4146 -1.58103 28.4146Z" fill="#F8F5D7"/>
</g>
</g>
<path d="M48.0179 27.5501V19.3776H48.3147C50.7645 23.3378 52.7887 26.4611 56.6083 26.4611C59.4264 26.4611 60.8748 24.6438 60.8748 22.3924C60.8748 19.9939 59.9843 19.087 57.0911 17.4168L53.1213 15.0918C49.7095 13.0925 48 10.771 48 7.6442C48 3.03276 51.6407 0.553722 57.1268 0.126542C61.6545 -0.300637 65.4382 0.490698 65.4382 0.490698V7.50064H65.1772C62.3948 3.39692 60.6138 1.50612 57.6096 1.50612C55.3458 1.50612 53.7508 2.6336 53.7508 4.7765C53.7508 7.17501 55.7177 8.40752 57.6454 9.535L61.5043 11.7514C65.4347 14.0029 67.3301 16.1458 67.3301 19.7068C67.3301 24.3567 63.4212 27.7321 57.0553 27.9527C50.6894 28.1733 48.0179 27.5501 48.0179 27.5501Z" fill="#1F1D1A"/>
<path d="M70.5993 24.7975V3.23888L69.5586 0.490234H89.2607V6.41122H88.9281L85.1801 2.25847H77.6876V12.5563H82.7338L85.2552 9.6816H85.5162V17.2378H85.2552L82.7338 14.3245H77.6876V25.7849H85.552L89.4466 20.7603H89.7792V27.5531H69.5586L70.5993 24.7975Z" fill="#1F1D1A"/>
<path d="M115.268 24.7864V6.19356L108.144 27.3705H101.814L95.4048 8.33997V24.7899L96.4813 27.5525H92.6367L93.6774 24.8144V3.22081L92.769 0.493164H100.072L107.639 22.9411L115.171 0.493164H123.433L122.392 3.25233V24.8074L123.433 27.549H114.216L115.268 24.7864Z" fill="#1F1D1A"/>
<path d="M130.371 27.5496H126.24L127.31 24.7869L135.009 4.34185L133.489 0.490234H140.689L150.18 24.7869L151.228 27.5496H141.872L142.931 24.7869L140.86 19.4752H131.465L129.337 24.7869M140.167 17.6334L136.004 6.96796L132.023 17.6334H140.167Z" fill="#1F1D1A"/>
<path d="M187.141 0.224609C194.694 -0.65426 201.65 4.35284 202.637 12.4693C203.674 21.0163 198.56 26.9163 190.492 27.8547C182.645 28.7686 176.022 23.758 175.042 15.6801C174.001 7.09449 179.33 1.13499 187.141 0.224609ZM182.659 15.0113C183.618 22.9106 186.365 27.0914 190.381 26.6222C194.397 26.1565 196.067 21.461 195.112 13.5617C193.95 3.96768 191.425 1.04045 187.337 1.51665C183.246 1.99635 181.494 5.4173 182.659 15.0113Z" fill="#1F1D1A"/>
<path d="M230 27.549H222.25L214.979 14.6916H212.976V24.7864L214.089 27.549H204.79L205.852 24.7864V3.24533L204.79 0.493164H215.834C222.772 0.493164 227.818 1.83773 227.818 7.24751C227.818 10.2833 226.27 12.9514 222.26 14.1419C220.236 14.7407 218.852 14.6951 218.852 14.6951L223.28 15.9452L230 27.549ZM212.976 12.9619H215.201C219.503 12.9619 220.615 11.4598 220.615 8.1894C220.615 3.83007 218.316 2.2544 215.201 2.2544H212.976V12.9619Z" fill="#1F1D1A"/>
<path d="M163.319 27.5496H154.113L155.154 24.7974V3.23888L154.113 0.490234H173.815V6.41121H173.483L169.735 2.25847H162.242V12.5563H167.289L169.81 9.6816H170.071V17.2378H169.81L167.289 14.3245H162.242V24.7869L163.319 27.5496Z" fill="#1F1D1A"/>
<defs>
<clipPath id="clip0_3407_17248">
<rect width="28" height="28" fill="white"/>
</clipPath>
</defs>
</svg>
