<svg width="32" height="32" viewBox="0 0 32 32" fill="none" xmlns="http://www.w3.org/2000/svg">
<g clip-path="url(#clip0_901_5262)">
<rect width="32" height="32" fill="#FEF5DF"/>
<mask id="mask0_901_5262" style="mask-type:alpha" maskUnits="userSpaceOnUse" x="-1" y="0" width="34" height="33">
<path d="M-0.324689 32.2133H32.0193V0H-0.324707L-0.324689 32.2133Z" fill="#D9D9D9"/>
</mask>
<g mask="url(#mask0_901_5262)">
<path d="M32.0193 32.2133H-0.324707V4.6766L7.64875 0H32.0193V32.2133Z" fill="#1E1B15"/>
<path d="M-1.80591 32.4748V22.6278H-1.45735C1.43285 27.3915 3.81472 31.1531 8.31703 31.1531C11.6429 31.1531 13.3422 28.96 13.3422 26.2587C13.3422 23.3685 12.2965 22.2792 8.88345 20.2604L4.20686 17.4574C0.183819 15.0464 -1.83496 12.2579 -1.83496 8.49629C-1.83496 2.94828 2.46402 -0.0435798 8.92702 -0.551906C14.2572 -1.06023 18.7304 -0.116198 18.7304 -0.116198V8.32201H18.4255C15.1431 3.38399 13.0517 1.10378 9.50796 1.10378C6.83562 1.10378 4.96208 2.45448 4.96208 5.03968C4.96208 7.92987 7.28586 9.41128 9.55154 10.762L14.0974 13.4343C18.7304 16.1502 20.9671 18.7209 20.9671 23.0054C20.9671 28.5969 16.3631 32.6636 8.8544 32.9395C1.3457 33.2155 -1.80591 32.4748 -1.80591 32.4748Z" fill="#F8F5D7"/>
</g>
</g>
<defs>
<clipPath id="clip0_901_5262">
<rect width="32" height="32" fill="white"/>
</clipPath>
</defs>
</svg>
